<?xml version="1.0" standalone="no"?><svg xmlns="http://www.w3.org/2000/svg" viewBox="0 0 1440 320"><path fill="#fff" fill-opacity="1" d="M0,288L26.7,293.3C53.3,299,107,309,160,309.3C213.3,309,267,299,320,272C373.3,245,427,203,480,197.3C533.3,192,587,224,640,213.3C693.3,203,747,149,800,160C853.3,171,907,245,960,240C1013.3,235,1067,149,1120,149.3C1173.3,149,1227,235,1280,229.3C1333.3,224,1387,128,1413,80L1440,32L1440,320L1413.3,320C1386.7,320,1333,320,1280,320C1226.7,320,1173,320,1120,320C1066.7,320,1013,320,960,320C906.7,320,853,320,800,320C746.7,320,693,320,640,320C586.7,320,533,320,480,320C426.7,320,373,320,320,320C266.7,320,213,320,160,320C106.7,320,53,320,27,320L0,320Z"></path></svg>