<?xml version="1.0" standalone="no"?><svg xmlns="http://www.w3.org/2000/svg" viewBox="0 0 1440 320"><path fill="#f3f4f5" fill-opacity="1" d="M0,128L26.7,128C53.3,128,107,128,160,149.3C213.3,171,267,213,320,213.3C373.3,213,427,171,480,181.3C533.3,192,587,256,640,240C693.3,224,747,128,800,101.3C853.3,75,907,117,960,122.7C1013.3,128,1067,96,1120,85.3C1173.3,75,1227,85,1280,74.7C1333.3,64,1387,32,1413,16L1440,0L1440,320L1413.3,320C1386.7,320,1333,320,1280,320C1226.7,320,1173,320,1120,320C1066.7,320,1013,320,960,320C906.7,320,853,320,800,320C746.7,320,693,320,640,320C586.7,320,533,320,480,320C426.7,320,373,320,320,320C266.7,320,213,320,160,320C106.7,320,53,320,27,320L0,320Z"></path></svg>